#!OML:ASF G:\JayActor3\Patient Classification 1\Patient 1\Session 5\male.ASF
:FULLY-SPECIFIED
:DEGREES
432
root 35.6148 16.2345 -5.01163 1100.89 89.209 1104.71
lowerback 1.21308 -0.509764 -2.04421
upperback 2.6029 -0.60256 -1.86601
thorax 1.99106 -0.300589 -0.771064
lowerneck -9.7064 1.76952 3.96441
upperneck 11.7652 1.81235 0.264923
head 5.1715 1.10266 -0.42932
rclavicle -3.47873e-016 -1.03368e-014
rhumerus -35.0698 -13.389 -84.1174
rradius 21.0474
rwrist 11.1596
rhand -16.9476 -5.17461
rfingers 7.12502
rthumb 9.28593 -34.9501
lclavicle -3.47873e-016 -1.03368e-014
lhumerus -24.703 4.67886 83.7659
lradius 29.0248
lwrist 13.5301
lhand -18.0365 12.2934
lfingers 7.12502
lthumb 8.23509 42.1129
rfemur -25.3669 1.30389 20.5252
rtibia 63.1763
rfoot -19.8238 -15.7402
rtoes -3.43134
lfemur -4.22559 12.8189 -24.2683
ltibia 26.9577
lfoot -16.2198 0.0567942
ltoes 0.283622
433
root 35.7415 16.2316 -5.01779 1105.49 89.2489 1109.22
lowerback 1.20795 -0.544603 -2.13315
upperback 2.61882 -0.648519 -1.84099
thorax 2.01185 -0.325642 -0.696103
lowerneck -9.67261 1.73793 3.94604
upperneck 11.6145 1.77453 0.255706
head 5.11808 1.07986 -0.432947
rclavicle -3.23025e-016 -2.3059e-014
rhumerus -35.4367 -13.0094 -84.2038
rradius 21.5223
rwrist 10.4868
rhand -16.9529 -5.20314
rfingers 7.12502
rthumb 9.28082 -34.9789
lclavicle -3.23025e-016 -2.3059e-014
lhumerus -24.1791 4.04128 83.9051
lradius 29.6452
lwrist 13.6321
lhand -18.0536 12.3969
lfingers 7.12502
lthumb 8.21858 42.2171
rfemur -26.14 1.55902 20.4789
rtibia 61.6222
rfoot -20.2376 -16.0785
rtoes -2.86526
lfemur -3.6479 12.592 -24.3162
ltibia 26.6483
lfoot -16.5394 0.330612
ltoes 0.335115
434
root 35.8685 16.2322 -5.02303 1110.84 89.2755 1114.47
lowerback 1.19243 -0.570454 -2.23466
upperback 2.63966 -0.681705 -1.81958
thorax 2.0438 -0.344565 -0.617928
lowerneck -9.62894 1.70085 3.92879
upperneck 11.4412 1.72846 0.256173
head 5.05587 1.05338 -0.434461
rclavicle -8.62228e-015 -1.27222e-014
rhumerus -35.7937 -12.669 -84.2862
rradius 21.9855
rwrist 9.86835
rhand -16.9961 -5.22697
rfingers 7.12502
rthumb 9.23907 -35.0046
lclavicle -8.62228e-015 -1.27222e-014
lhumerus -23.6459 3.42776 84.0231
lradius 30.2342
lwrist 13.7369
lhand -18.0835 12.4195
lfingers 7.12502
lthumb 8.18975 42.2408
rfemur -26.8511 1.81038 20.4081
rtibia 59.9739
rfoot -20.5348 -16.3646
rtoes -2.18937
lfemur -2.99933 12.3781 -24.3698
ltibia 26.2055
lfoot -16.7933 0.604951
ltoes 0.342777
435
root 35.9953 16.2356 -5.02713 1115.13 89.2913 1118.66
lowerback 1.16783 -0.586303 -2.33167
upperback 2.65987 -0.701307 -1.79603
thorax 2.08022 -0.356748 -0.540126
lowerneck -9.57156 1.66208 3.90988
upperneck 11.2508 1.67986 0.267214
head 4.98596 1.02606 -0.432714
rclavicle -2.73329e-015 1.59028e-015
rhumerus -36.1433 -12.3653 -84.3632
rradius 22.4308
rwrist 9.30013
rhand -17.0673 -5.23795
rfingers 7.12502
rthumb 9.17039 -35.0186
lclavicle -2.73329e-015 1.59028e-015
lhumerus -23.1173 2.83455 84.1228
lradius 30.8058
lwrist 13.8676
lhand -18.1274 12.3697
lfingers 7.12502
lthumb 8.14742 42.1926
rfemur -27.5106 2.07561 20.3377
rtibia 58.248
rfoot -20.7074 -16.6057
rtoes -1.41336
lfemur -2.2995 12.1786 -24.4086
ltibia 25.6498
lfoot -16.9793 0.881655
ltoes 0.298031
436
root 36.1224 16.2403 -5.03046 1121 89.2829 1124.44
lowerback 1.14043 -0.596484 -2.45656
upperback 2.68547 -0.71244 -1.78202
thorax 2.12408 -0.365137 -0.456581
lowerneck -9.50528 1.6206 3.88584
upperneck 11.0507 1.62746 0.290716
head 4.91149 0.99736 -0.426572
rclavicle 1.78906e-015 2.38542e-015
rhumerus -36.4779 -12.0964 -84.4361
rradius 22.847
rwrist 8.78947
rhand -17.166 -5.23703
rfingers 7.12502
rthumb 9.07518 -35.0218
lclavicle 1.78906e-015 2.38542e-015
lhumerus -22.5983 2.26105 84.2063
lradius 31.3634
lwrist 14.0279
lhand -18.1974 12.2695
lfingers 7.12502
lthumb 8.07981 42.095
rfemur -28.1072 2.33263 20.2245
rtibia 56.4729
rfoot -20.7705 -16.7874
rtoes -0.643196
lfemur -1.53224 12.014 -24.4657
ltibia 24.9848
lfoot -17.0973 1.12569
ltoes 0.204141
437
root 36.2494 16.2454 -5.03308 1126.44 89.2603 1129.8
lowerback 1.11334 -0.60018 -2.58151
upperback 2.71351 -0.714559 -1.77206
thorax 2.17021 -0.369032 -0.377124
lowerneck -9.44098 1.57497 3.84771
upperneck 10.8528 1.56937 0.332517
head 4.83777 0.966517 -0.412776
rclavicle -9.98893e-015 -2.06736e-014
rhumerus -36.7916 -11.865 -84.5033
rradius 23.2231
rwrist 8.33652
rhand -17.2677 -5.23636
rfingers 7.12502
rthumb 8.977 -35.0254
lclavicle -9.98893e-015 -2.06736e-014
lhumerus -22.0935 1.69749 84.2757
lradius 31.9204
lwrist 14.242
lhand -18.2772 12.1658
lfingers 7.12502
lthumb 8.00277 41.9943
rfemur -28.6456 2.583 20.0981
rtibia 54.6642
rfoot -20.7443 -16.9108
rtoes 0.0796159
lfemur -0.722042 11.8947 -24.5128
ltibia 24.2463
lfoot -17.1524 1.32271
ltoes 0.0959092
438
root 36.3772 16.2508 -5.0353 1133.02 89.214 1136.32
lowerback 1.09374 -0.601581 -2.72308
upperback 2.74722 -0.712921 -1.77519
thorax 2.21808 -0.371191 -0.301765
lowerneck -9.37277 1.52415 3.78938
upperneck 10.6628 1.50479 0.398034
head 4.76553 0.933347 -0.38875
rclavicle 1.45858e-014 1.90833e-014
rhumerus -37.0871 -11.6796 -84.5606
rradius 23.5523
rwrist 7.94766
rhand -17.3783 -5.22815
rfingers 7.12502
rthumb 8.87033 -35.0217
lclavicle 1.45858e-014 1.90833e-014
lhumerus -21.6161 1.14873 84.3272
lradius 32.4803
lwrist 14.4775
lhand -18.3583 12.0686
lfingers 7.12502
lthumb 7.92453 41.9001
rfemur -29.109 2.7993 19.9363
rtibia 52.8373
rfoot -20.6276 -16.9955
rtoes 0.587408
lfemur 0.140891 11.8335 -24.5659
ltibia 23.4582
lfoot -17.1656 1.4375
ltoes -0.00564349
439
root 36.504 16.2561 -5.03686 1137.64 89.1657 1140.87
lowerback 1.07832 -0.597652 -2.83997
upperback 2.77907 -0.7044 -1.78046
thorax 2.26119 -0.369429 -0.24227
lowerneck -9.31973 1.46978 3.71423
upperneck 10.4885 1.43478 0.484662
head 4.70045 0.898412 -0.355619
rclavicle 4.52235e-015 3.49861e-014
rhumerus -37.3464 -11.5395 -84.6117
rradius 23.8185
rwrist 7.631
rhand -17.468 -5.2258
rfingers 7.12502
rthumb 8.78376 -35.023
lclavicle 4.52235e-015 3.49861e-014
lhumerus -21.1575 0.623115 84.3567
lradius 33.0476
lwrist 14.7168
lhand -18.419 12.0834
lfingers 7.12502
lthumb 7.86593 41.9171
rfemur -29.5309 3.01228 19.7894
rtibia 50.9903
rfoot -20.4094 -17.0749
rtoes 0.856371
lfemur 1.00307 11.8207 -24.5873
ltibia 22.6586
lfoot -17.1503 1.48593
ltoes -0.0691855
440
root 36.6302 16.2611 -5.03774 1140.57 89.13 1143.74
lowerback 1.06175 -0.591575 -2.92293
upperback 2.80558 -0.693422 -1.78536
thorax 2.29887 -0.3658 -0.201295
lowerneck -9.26764 1.41518 3.62998
upperneck 10.3264 1.36477 0.58134
head 4.63935 0.863943 -0.317813
rclavicle 4.4975e-015 1.03368e-014
rhumerus -37.5712 -11.4462 -84.6541
rradius 24.0176
rwrist 7.38946
rhand -17.5321 -5.22689
rfingers 7.12502
rthumb 8.72192 -35.0267
lclavicle 4.4975e-015 1.03368e-014
lhumerus -20.7286 0.116494 84.365
lradius 33.6191
lwrist 14.9731
lhand -18.47 12.1316
lfingers 7.12502
lthumb 7.81674 41.9671
rfemur -29.9148 3.2168 19.6702
rtibia 49.1247
rfoot -20.0907 -17.1668
rtoes 0.817674
lfemur 1.85493 11.8638 -24.5661
ltibia 21.8584
lfoot -17.1113 1.47032
ltoes -0.138042
441
root 36.7549 16.2655 -5.03769 1141.59 89.1094 1144.67
lowerback 1.04488 -0.582803 -2.96884
upperback 2.82181 -0.679639 -1.78975
thorax 2.3255 -0.35999 -0.180355
lowerneck -9.22067 1.36409 3.54784
upperneck 10.1774 1.29887 0.680406
head 4.5834 0.831919 -0.279217
rclavicle 8.12532e-015 2.14687e-014
rhumerus -37.759 -11.3938 -84.6933
rradius 24.1443
rwrist 7.23628
rhand -17.5754 -5.2222
rfingers 7.12502
rthumb 8.68008 -35.0237
lclavicle 8.12532e-015 2.14687e-014
lhumerus -20.3255 -0.365084 84.3487
lradius 34.178
lwrist 15.2267
lhand -18.5135 12.1815
lfingers 7.12502
lthumb 7.77469 42.0186
rfemur -30.2773 3.44292 19.5786
rtibia 47.2368
rfoot -19.7312 -17.2405
rtoes 0.71308
lfemur 2.67249 11.936 -24.5077
ltibia 21.0781
lfoot -17.0582 1.42164
ltoes -0.169486
